<?xml version="1.0"?>
<svg xmlns="http://www.w3.org/2000/svg" xmlns:xlink="http://www.w3.org/1999/xlink" xmlns:svgjs="http://svgjs.com/svgjs" version="1.1" width="512" height="512" x="0" y="0" viewBox="0 0 468.293 468.293" style="enable-background:new 0 0 512 512" xml:space="preserve" class=""><g>
<g xmlns="http://www.w3.org/2000/svg">
	<path style="" d="M468.293,194.799v4.109c0,10.621-8.684,19.228-19.305,19.228h-34.889v-23.337   c0-10.621,8.684-19.228,19.305-19.228h15.584C459.609,175.572,468.293,184.178,468.293,194.799z" fill="#3a556a" data-original="#3a556a" class=""/>
	<path style="" d="M54.118,194.799v23.337H19.305C8.606,218.136,0,209.53,0,198.909v-4.109   c0-10.621,8.606-19.228,19.305-19.228h15.584C45.511,175.572,54.118,184.178,54.118,194.799z" fill="#3a556a" data-original="#3a556a" class=""/>
</g>
<path xmlns="http://www.w3.org/2000/svg" style="" d="M443.482,239.535v85.285c0,12.792-10.389,23.26-23.26,23.26H48.07c-12.87,0-23.26-10.468-23.26-23.26  v-85.285c0-12.87,10.389-23.26,23.26-23.26h372.153C433.093,216.276,443.482,226.666,443.482,239.535z" fill="#3a556a" data-original="#e56353" class=""/>
<path xmlns="http://www.w3.org/2000/svg" style="" d="M418.827,216.276H49.465l52.179-111.337c3.877-8.139,12.095-13.335,21.088-13.335H345.56  c8.994,0,17.212,5.196,21.011,13.335L418.827,216.276z" fill="#3a556a" data-original="#d15241" class=""/>
<path xmlns="http://www.w3.org/2000/svg" style="" d="M382.232,200.769H86.061c-5.66,0-9.459-5.893-7.056-11.087l36.673-78.153  c1.318-2.714,4.031-4.42,7.055-4.42H345.56c3.024,0,5.737,1.705,6.978,4.42l36.672,78.153  C391.614,194.877,387.892,200.769,382.232,200.769z" fill="#ebf0f3" data-original="#ebf0f3" class=""/>
<circle xmlns="http://www.w3.org/2000/svg" style="" cx="370.126" cy="282.162" r="38.768" fill="#3a556a" data-original="#d15241" class=""/>
<circle xmlns="http://www.w3.org/2000/svg" style="" cx="370.126" cy="282.156" r="25.844" fill="#fcd462" data-original="#fcd462" class=""/>
<circle xmlns="http://www.w3.org/2000/svg" style="" cx="98.148" cy="282.162" r="38.768" fill="#3a556a" data-original="#d15241" class=""/>
<circle xmlns="http://www.w3.org/2000/svg" style="" cx="98.148" cy="282.156" r="25.844" fill="#fcd462" data-original="#fcd462" class=""/>
<g xmlns="http://www.w3.org/2000/svg">
	<path style="" d="M419.913,348.08v20.856c0,4.265-3.411,7.753-7.753,7.753h-44.002c-4.265,0-7.753-3.489-7.753-7.753   V348.08H419.913z" fill="#3a556a" data-original="#3a556a" class=""/>
	<path style="" d="M107.811,348.08v20.856c0,4.265-3.411,7.753-7.753,7.753H56.056c-4.265,0-7.753-3.489-7.753-7.753   V348.08H107.811z" fill="#3a556a" data-original="#3a556a" class=""/>
</g>
<g xmlns="http://www.w3.org/2000/svg">
	<path style="" d="M291.168,288.364H177.107c-2.759,0-4.995-2.236-4.995-4.995v-2.415c0-2.759,2.236-4.995,4.995-4.995   h114.061c2.759,0,4.995,2.236,4.995,4.995v2.415C296.163,286.128,293.926,288.364,291.168,288.364z" fill="#3a556a" data-original="#d15241" class=""/>
	<path style="" d="M306.674,313.174H161.6c-2.759,0-4.995-2.236-4.995-4.995v-2.415c0-2.759,2.236-4.995,4.995-4.995   h145.074c2.759,0,4.995,2.236,4.995,4.995v2.415C311.669,310.938,309.433,313.174,306.674,313.174z" fill="#3a556a" data-original="#d15241" class=""/>
	<path style="" d="M306.674,263.554H161.6c-2.759,0-4.995-2.236-4.995-4.995v-2.415c0-2.759,2.236-4.995,4.995-4.995   h145.074c2.759,0,4.995,2.236,4.995,4.995v2.415C311.669,261.317,309.433,263.554,306.674,263.554z" fill="#3a556a" data-original="#d15241" class=""/>
</g>
<g xmlns="http://www.w3.org/2000/svg">
	<polygon style="" points="201.195,107.11 160.491,200.769 144.597,200.769 185.379,107.11  " fill="#d5d6db" data-original="#d5d6db" class=""/>
	<polygon style="" points="243.373,107.11 202.591,200.769 186.774,200.769 227.479,107.11  " fill="#d5d6db" data-original="#d5d6db" class=""/>
	<polygon style="" points="337.186,107.11 296.405,200.769 280.588,200.769 321.292,107.11  " fill="#d5d6db" data-original="#d5d6db" class=""/>
</g>
<g xmlns="http://www.w3.org/2000/svg">
</g>
<g xmlns="http://www.w3.org/2000/svg">
</g>
<g xmlns="http://www.w3.org/2000/svg">
</g>
<g xmlns="http://www.w3.org/2000/svg">
</g>
<g xmlns="http://www.w3.org/2000/svg">
</g>
<g xmlns="http://www.w3.org/2000/svg">
</g>
<g xmlns="http://www.w3.org/2000/svg">
</g>
<g xmlns="http://www.w3.org/2000/svg">
</g>
<g xmlns="http://www.w3.org/2000/svg">
</g>
<g xmlns="http://www.w3.org/2000/svg">
</g>
<g xmlns="http://www.w3.org/2000/svg">
</g>
<g xmlns="http://www.w3.org/2000/svg">
</g>
<g xmlns="http://www.w3.org/2000/svg">
</g>
<g xmlns="http://www.w3.org/2000/svg">
</g>
<g xmlns="http://www.w3.org/2000/svg">
</g>
</g></svg>
