<?xml version="1.0"?>
<svg xmlns="http://www.w3.org/2000/svg" xmlns:xlink="http://www.w3.org/1999/xlink" xmlns:svgjs="http://svgjs.com/svgjs" version="1.1" width="512" height="512" x="0" y="0" viewBox="0 0 24 24" style="enable-background:new 0 0 512 512" xml:space="preserve" class=""><g><path xmlns="http://www.w3.org/2000/svg" d="m23.25 15c-.414 0-.75-.336-.75-.75 0-2.895-2.355-5.25-5.25-5.25h-7.25v3.25c0 .66-.794.994-1.268.542l-5.5-5.25c-.148-.141-.232-.337-.232-.542s.084-.401.232-.542l5.5-5.25c.476-.454 1.268-.116 1.268.542v3.25h6.25c4.273 0 7.75 3.477 7.75 7.75v1.5c0 .414-.336.75-.75.75z" fill="#38374f" data-original="#000000" style="" class=""/><path xmlns="http://www.w3.org/2000/svg" d="m14 22.25v-3.25h-6.25c-4.273 0-7.75-3.477-7.75-7.75v-1.5c0-.414.336-.75.75-.75s.75.336.75.75c0 2.895 2.355 5.25 5.25 5.25h7.25v-3.25c0-.657.791-.998 1.268-.542l5.5 5.25c.148.141.232.337.232.542s-.084.401-.232.542l-5.5 5.25c-.477.454-1.268.116-1.268-.542z" fill="#38374f" data-original="#000000" style="" class=""/></g></svg>
